<svg width="721" height="601" viewBox="0 0 721 601" fill="none" xmlns="http://www.w3.org/2000/svg">
<mask id="mask0_1030_8868" style="mask-type:alpha" maskUnits="userSpaceOnUse" x="0" y="0" width="721" height="601">
<path d="M0 0.5H420C585.685 0.5 720 134.815 720 300.5V600.5H0V0.5Z" fill="white"/>
<path fill-rule="evenodd" clip-rule="evenodd" d="M720.107 385.25H720V392C720 389.741 720.036 387.491 720.107 385.25Z" fill="white"/>
</mask>
<g mask="url(#mask0_1030_8868)">
<path d="M-230 -0.75L-148.392 611.25L209.5 611.25L-29.0736 -0.75L-230 -0.75Z" fill="url(#paint0_linear_1030_8868)"/>
<path d="M283.867 609.75L85 101.885L277.136 54.1296L491.307 3L564.527 3L522.627 93.9504L697 609.649L283.867 609.75Z" fill="url(#paint1_linear_1030_8868)"/>
<path d="M-37.1836 -8.25L44.2561 191.103L-149 611.25L285.136 611.25L250.188 523.597L492.25 2.33612L-37.1836 -8.25Z" fill="#FFD100"/>
<path d="M580.654 -30.3264L284.5 609.75L925.658 609.75L1271.5 -168L580.654 -30.3264Z" fill="#E20613"/>
<path d="M492.25 2.80634L492.097 2.25L40.75 2.25L250.375 524.25L492.25 2.80634Z" fill="url(#paint2_linear_1030_8868)"/>
<path d="M-149 611.25H209.5L44.2818 191.25L-149 611.25Z" fill="url(#paint3_linear_1030_8868)"/>
<path d="M284.5 609.75H658L500.577 141.75L284.5 609.75Z" fill="url(#paint4_linear_1030_8868)"/>
</g>
<defs>
<linearGradient id="paint0_linear_1030_8868" x1="-49.8263" y1="611.25" x2="-49.8263" y2="116.619" gradientUnits="userSpaceOnUse">
<stop stop-color="#2B3087"/>
<stop offset="0.82" stop-color="#00B4EC"/>
</linearGradient>
<linearGradient id="paint1_linear_1030_8868" x1="390.847" y1="609.75" x2="390.847" y2="1.30517" gradientUnits="userSpaceOnUse">
<stop stop-color="#2B3087"/>
<stop offset="1" stop-color="#118FB7"/>
</linearGradient>
<linearGradient id="paint2_linear_1030_8868" x1="288.55" y1="522.75" x2="288.55" y2="2.25" gradientUnits="userSpaceOnUse">
<stop stop-color="#009540"/>
<stop offset="1" stop-color="#26A960"/>
</linearGradient>
<linearGradient id="paint3_linear_1030_8868" x1="30.25" y1="191.25" x2="30.25" y2="611.25" gradientUnits="userSpaceOnUse">
<stop stop-color="#3FAE6C"/>
<stop offset="1" stop-color="#006633"/>
</linearGradient>
<linearGradient id="paint4_linear_1030_8868" x1="284.5" y1="375.796" x2="658" y2="375.796" gradientUnits="userSpaceOnUse">
<stop stop-color="#164194"/>
<stop offset="1" stop-color="#005CA9"/>
</linearGradient>
</defs>
</svg>
