<svg width="13" height="12" viewBox="0 0 13 12" fill="none" xmlns="http://www.w3.org/2000/svg">
<path fill-rule="evenodd" clip-rule="evenodd" d="M6.77984 1.96967C6.48695 1.67678 6.01207 1.67678 5.71918 1.96967C5.42629 2.26256 5.42629 2.73744 5.71918 3.03033L7.93873 5.24988H2.75C2.33579 5.24988 2 5.58566 2 5.99988C2 6.41409 2.33579 6.74988 2.75 6.74988H7.93897L5.71918 8.96967C5.42629 9.26256 5.42629 9.73744 5.71918 10.0303C6.01207 10.3232 6.48695 10.3232 6.77984 10.0303L10.2662 6.544C10.4102 6.40734 10.5 6.2141 10.5 5.99988C10.5 5.78358 10.4084 5.58867 10.262 5.45179L6.77984 1.96967Z" fill="#2278D4"/>
</svg>
