<svg width="13" height="13" viewBox="0 0 13 13" fill="none" xmlns="http://www.w3.org/2000/svg">
<path fill-rule="evenodd" clip-rule="evenodd" d="M7.02984 2.46967C6.73695 2.17678 6.26207 2.17678 5.96918 2.46967C5.67629 2.76256 5.67629 3.23744 5.96918 3.53033L8.18891 5.75006H3C2.58579 5.75006 2.25 6.08585 2.25 6.50006C2.25 6.91427 2.58579 7.25006 3 7.25006H8.18879L5.96918 9.46967C5.67629 9.76256 5.67629 10.2374 5.96918 10.5303C6.26207 10.8232 6.73695 10.8232 7.02984 10.5303L10.5129 7.04724C10.6588 6.9104 10.75 6.71588 10.75 6.50006C10.75 6.28526 10.6597 6.09156 10.515 5.95483L7.02984 2.46967Z" fill="#22A75D"/>
</svg>
