<svg width="14" height="14" viewBox="0 0 14 14" fill="none" xmlns="http://www.w3.org/2000/svg">
<g id="arrow-left-ic">
<path id="Union" fill-rule="evenodd" clip-rule="evenodd" d="M7.21025 3.64775C7.42992 3.42808 7.42992 3.07192 7.21025 2.85225C6.99058 2.63258 6.63442 2.63258 6.41475 2.85225L2.48033 6.78668C2.46935 6.79749 2.45881 6.80876 2.44874 6.82044C2.41154 6.86354 2.38196 6.91095 2.36 6.9609C2.32946 7.03022 2.3125 7.10687 2.3125 7.18748C2.3125 7.26011 2.32627 7.32953 2.35133 7.39327C2.37877 7.4632 2.42074 7.52874 2.47725 7.58525L6.41475 11.5227C6.63442 11.7424 6.99058 11.7424 7.21025 11.5227C7.42992 11.3031 7.42992 10.9469 7.21025 10.7273L4.23297 7.74998H10.75C11.0607 7.74998 11.3125 7.49814 11.3125 7.18748C11.3125 6.87682 11.0607 6.62498 10.75 6.62498H4.23302L7.21025 3.64775Z" fill="white"/>
</g>
</svg>
