<svg width="14" height="14" viewBox="0 0 14 14" fill="none" xmlns="http://www.w3.org/2000/svg">
<g id="arrow-left-ic">
<path id="Union" fill-rule="evenodd" clip-rule="evenodd" d="M6.35225 3.21025C6.13258 2.99058 6.13258 2.63442 6.35225 2.41475C6.57192 2.19508 6.92808 2.19508 7.14775 2.41475L11.0822 6.34918C11.0932 6.35999 11.1037 6.37126 11.1138 6.38294C11.151 6.42604 11.1805 6.47345 11.2025 6.5234C11.233 6.59272 11.25 6.66937 11.25 6.74998C11.25 6.82261 11.2362 6.89203 11.2112 6.95577C11.1837 7.0257 11.1418 7.09124 11.0852 7.14775L7.14775 11.0852C6.92808 11.3049 6.57192 11.3049 6.35225 11.0852C6.13258 10.8656 6.13258 10.5094 6.35225 10.2898L9.32953 7.31248H2.8125C2.50184 7.31248 2.25 7.06064 2.25 6.74998C2.25 6.43932 2.50184 6.18748 2.8125 6.18748H9.32948L6.35225 3.21025Z" fill="white"/>
</g>
</svg>
