<svg width="18" height="19" viewBox="0 0 18 19" fill="none" xmlns="http://www.w3.org/2000/svg">
<g id="Frame">
<path id="Vector" d="M17.0745 3.67471C16.8004 3.56055 16.4986 3.53055 16.2074 3.58851C15.9163 3.64648 15.6489 3.7898 15.4395 4.00021L13.5 5.93971L10.0605 2.50021C9.77921 2.21901 9.39775 2.06104 9 2.06104C8.60225 2.06104 8.22079 2.21901 7.9395 2.50021L4.5 5.93971L2.5605 4.00021C2.35072 3.7905 2.08348 3.64769 1.79255 3.58984C1.50162 3.53199 1.20007 3.56169 0.926018 3.6752C0.651968 3.7887 0.417724 3.98091 0.252898 4.22753C0.0880711 4.47414 6.33365e-05 4.76409 0 5.06071L0 13.0002C0.00119089 13.9944 0.396661 14.9475 1.09966 15.6506C1.80267 16.3536 2.7558 16.749 3.75 16.7502H14.25C15.2442 16.749 16.1973 16.3536 16.9003 15.6506C17.6033 14.9475 17.9988 13.9944 18 13.0002V5.06071C18.0001 4.76407 17.9122 4.47406 17.7475 4.22735C17.5827 3.98065 17.3485 3.78833 17.0745 3.67471Z" fill="#191F30"/>
</g>
</svg>
