<svg width="19" height="19" viewBox="0 0 19 19" fill="none" xmlns="http://www.w3.org/2000/svg">
<g id="Frame" clip-path="url(#clip0_1030_8864)">
<path id="Vector" d="M1.24466 10.0501L3.91466 12.0001L2.90066 15.1403C2.7368 15.6274 2.73472 16.1543 2.89474 16.6427C3.05477 17.131 3.36832 17.5545 3.78866 17.8501C4.2018 18.1552 4.70246 18.3186 5.21603 18.316C5.7296 18.3135 6.22859 18.145 6.63866 17.8358L9.24941 15.9143L11.8609 17.8336C12.2733 18.1369 12.7713 18.3017 13.2832 18.3042C13.7951 18.3067 14.2947 18.1468 14.71 17.8475C15.1253 17.5482 15.435 17.1249 15.5946 16.6384C15.7542 16.152 15.7555 15.6275 15.5982 15.1403L14.5842 12.0001L17.2542 10.0501C17.666 9.74897 17.9722 9.3254 18.1289 8.83988C18.2857 8.35436 18.285 7.83173 18.1269 7.34663C17.9689 6.86153 17.6616 6.43878 17.2489 6.13877C16.8363 5.83875 16.3394 5.67682 15.8292 5.67609H12.5494L11.5542 2.57409C11.3977 2.08581 11.0901 1.65985 10.6759 1.35764C10.2617 1.05543 9.76216 0.892578 9.24941 0.892578C8.73666 0.892578 8.23716 1.05543 7.82294 1.35764C7.40871 1.65985 7.10117 2.08581 6.94466 2.57409L5.94941 5.67609H2.67266C2.16247 5.67682 1.66556 5.83875 1.2529 6.13877C0.840238 6.43878 0.532943 6.86153 0.374903 7.34663C0.216864 7.83173 0.216164 8.35436 0.372905 8.83988C0.529645 9.3254 0.835808 9.74897 1.24766 10.0501H1.24466Z" fill="#191F30"/>
</g>
<defs>
<clipPath id="clip0_1030_8864">
<rect width="18" height="18" fill="white" transform="translate(0.25 0.75)"/>
</clipPath>
</defs>
</svg>
