<svg width="20" height="20" viewBox="0 0 20 20" fill="none" xmlns="http://www.w3.org/2000/svg">
<g clip-path="url(#clip0_1030_9691)">
<path d="M10.4008 0.799805C5.09678 0.799805 0.800781 5.0238 0.800781 10.2334C0.800781 14.4022 3.55118 17.9374 7.36478 19.1838C7.84478 19.2726 8.02078 18.9806 8.02078 18.7302C8.02078 18.5062 8.01278 17.9126 8.00878 17.1262C5.33838 17.695 4.77518 15.8606 4.77518 15.8606C4.33838 14.7718 3.70718 14.4806 3.70718 14.4806C2.83758 13.8958 3.77438 13.9078 3.77438 13.9078C4.73838 13.9734 5.24478 14.8798 5.24478 14.8798C6.10078 16.3222 7.49198 15.9054 8.04078 15.6646C8.12718 15.0542 8.37438 14.639 8.64878 14.403C6.51678 14.167 4.27598 13.3558 4.27598 9.74141C4.27598 8.71181 4.64798 7.8702 5.26398 7.21021C5.15598 6.97181 4.83198 6.01261 5.34798 4.71341C5.34798 4.71341 6.15198 4.4606 7.98798 5.6806C8.75598 5.471 9.57198 5.36701 10.388 5.36221C11.204 5.36701 12.02 5.471 12.788 5.6806C14.612 4.4606 15.416 4.71341 15.416 4.71341C15.932 6.01261 15.608 6.97181 15.512 7.21021C16.124 7.8702 16.496 8.71181 16.496 9.74141C16.496 13.3654 14.252 14.163 12.116 14.395C12.452 14.6782 12.764 15.2566 12.764 16.1406C12.764 17.403 12.752 18.4174 12.752 18.7238C12.752 18.971 12.92 19.2662 13.412 19.1718C17.2528 17.9334 20.0008 14.3958 20.0008 10.2334C20.0008 5.0238 15.7024 0.799805 10.4008 0.799805Z" fill="white"/>
</g>
<defs>
<clipPath id="clip0_1030_9691">
<rect width="19.2" height="19.2" fill="white" transform="translate(0.800781 0.399902)"/>
</clipPath>
</defs>
</svg>
