<svg width="20" height="20" viewBox="0 0 20 20" fill="none" xmlns="http://www.w3.org/2000/svg">
<g clip-path="url(#clip0_1030_9687)">
<path d="M14.2012 2H6.20117C3.99203 2 2.20117 3.79086 2.20117 6V14C2.20117 16.2091 3.99203 18 6.20117 18H14.2012C16.4103 18 18.2012 16.2091 18.2012 14V6C18.2012 3.79086 16.4103 2 14.2012 2Z" stroke="white" stroke-width="1.92" stroke-linecap="round" stroke-linejoin="round"/>
<path d="M13.4005 9.49575C13.4993 10.1615 13.3856 10.8415 13.0756 11.439C12.7656 12.0364 12.2751 12.5209 11.6738 12.8235C11.0726 13.1261 10.3913 13.2314 9.72678 13.1245C9.06225 13.0176 8.44836 12.7038 7.97242 12.2279C7.49648 11.7519 7.18273 11.1381 7.0758 10.4735C6.96887 9.80899 7.0742 9.12767 7.37681 8.52645C7.67942 7.92524 8.1639 7.43475 8.76133 7.12475C9.35877 6.81475 10.0387 6.70102 10.7045 6.79975C11.3837 6.90046 12.0124 7.21692 12.4979 7.7024C12.9834 8.18787 13.2998 8.81661 13.4005 9.49575Z" stroke="white" stroke-width="1.92" stroke-linecap="round" stroke-linejoin="round"/>
<path d="M14.5996 5.59961H14.6079" stroke="white" stroke-width="1.92" stroke-linecap="round" stroke-linejoin="round"/>
</g>
<defs>
<clipPath id="clip0_1030_9687">
<rect width="19.2" height="19.2" fill="white" transform="translate(0.599609 0.399902)"/>
</clipPath>
</defs>
</svg>
