<svg width="141" height="23" viewBox="0 0 141 23" fill="none" xmlns="http://www.w3.org/2000/svg">
<g clip-path="url(#clip0_1030_8995)">
<path d="M6.67453 8.03809H0L7.04534 22.4996H13.7199L6.67453 8.03809Z" fill="#0B92D2"/>
<path d="M20.3952 4.33008H13.7207L21.2605 22.4996H27.935L20.3952 4.33008Z" fill="#137BC0"/>
<path d="M13.72 4.33057H20.3945L13.72 22.5001H7.04547L13.72 4.33057Z" fill="#0E763F"/>
<path fill-rule="evenodd" clip-rule="evenodd" d="M9.91615 14.689L7.04688 22.4998H13.7214L9.91615 14.689Z" fill="#FFD100"/>
<path fill-rule="evenodd" clip-rule="evenodd" d="M7.04688 22.4998H13.7214L9.91615 14.689L7.04688 22.4998Z" fill="#FFD100"/>
<path d="M28.8001 0.375H35.4746L27.8113 22.4998H21.1367L28.8001 0.375Z" fill="#E20613"/>
<path fill-rule="evenodd" clip-rule="evenodd" d="M24.2295 13.5708L21.193 22.3377L21.2603 22.5H27.9349L27.8675 22.3377L24.2295 13.5708Z" fill="#0E4B9C"/>
<path fill-rule="evenodd" clip-rule="evenodd" d="M27.8112 22.5L27.8675 22.3377L24.2295 13.5708L21.193 22.3377L21.1367 22.5H27.8112Z" fill="#0E4B9C"/>
<path d="M46.4101 9.828H41.25V6.924H55.3019V9.828H50.1419V22.324H46.4101V9.828Z" fill="white"/>
<path d="M61.6939 22.5C60.3885 22.5 59.2137 22.2433 58.1694 21.73C57.1404 21.202 56.3342 20.476 55.7506 19.552C55.167 18.628 54.8752 17.5793 54.8752 16.406C54.8752 15.2327 55.167 14.184 55.7506 13.26C56.3342 12.336 57.1404 11.6173 58.1694 11.104C59.2137 10.576 60.3885 10.312 61.6939 10.312C62.9993 10.312 64.1664 10.576 65.1954 11.104C66.2243 11.6173 67.0306 12.336 67.6141 13.26C68.1977 14.184 68.4895 15.2327 68.4895 16.406C68.4895 17.5793 68.1977 18.628 67.6141 19.552C67.0306 20.476 66.2243 21.202 65.1954 21.73C64.1664 22.2433 62.9993 22.5 61.6939 22.5ZM61.6939 19.684C62.6153 19.684 63.3678 19.3907 63.9514 18.804C64.5504 18.2027 64.8498 17.4033 64.8498 16.406C64.8498 15.4087 64.5504 14.6167 63.9514 14.03C63.3678 13.4287 62.6153 13.128 61.6939 13.128C60.7725 13.128 60.0123 13.4287 59.4133 14.03C58.8144 14.6167 58.5149 15.4087 58.5149 16.406C58.5149 17.4033 58.8144 18.2027 59.4133 18.804C60.0123 19.3907 60.7725 19.684 61.6939 19.684Z" fill="white"/>
<path d="M76.2129 17.682L74.4852 19.31V22.324H70.8915V6H74.4852V15.24L79.7374 10.488H84.0221L78.862 15.504L84.4828 22.324H80.129L76.2129 17.682Z" fill="white"/>
<path d="M93.5417 10.312C95.0774 10.312 96.3137 10.752 97.2505 11.632C98.2026 12.512 98.6787 13.8173 98.6787 15.548V22.324H95.0851V16.076C95.0851 15.1373 94.8701 14.4407 94.4401 13.986C94.0101 13.5167 93.3881 13.282 92.5742 13.282C91.6681 13.282 90.9463 13.5533 90.4088 14.096C89.8713 14.624 89.6025 15.416 89.6025 16.472V22.324H86.0089V10.488H89.4413V11.874C89.9173 11.3753 90.5086 10.994 91.215 10.73C91.9215 10.4513 92.697 10.312 93.5417 10.312Z" fill="white"/>
<path d="M114.211 16.45C114.211 16.494 114.188 16.802 114.142 17.374H104.766C104.935 18.1073 105.335 18.6867 105.964 19.112C106.594 19.5373 107.377 19.75 108.314 19.75C108.959 19.75 109.527 19.662 110.019 19.486C110.525 19.2953 110.994 19.002 111.424 18.606L113.336 20.586C112.169 21.862 110.464 22.5 108.222 22.5C106.824 22.5 105.588 22.2433 104.513 21.73C103.438 21.202 102.609 20.476 102.025 19.552C101.441 18.628 101.15 17.5793 101.15 16.406C101.15 15.2473 101.434 14.206 102.002 13.282C102.586 12.3433 103.376 11.6173 104.375 11.104C105.388 10.576 106.517 10.312 107.761 10.312C108.974 10.312 110.072 10.5613 111.055 11.06C112.038 11.5587 112.806 12.2773 113.359 13.216C113.927 14.14 114.211 15.218 114.211 16.45ZM107.784 12.908C106.97 12.908 106.287 13.128 105.734 13.568C105.181 14.008 104.843 14.6093 104.72 15.372H110.825C110.702 14.624 110.364 14.03 109.811 13.59C109.258 13.1353 108.583 12.908 107.784 12.908Z" fill="white"/>
<path d="M120.036 12.05C120.466 11.478 121.042 11.0453 121.764 10.752C122.501 10.4587 123.345 10.312 124.298 10.312V13.48C123.898 13.4507 123.63 13.436 123.491 13.436C122.462 13.436 121.656 13.7147 121.073 14.272C120.489 14.8147 120.197 15.636 120.197 16.736V22.324H116.604V10.488H120.036V12.05Z" fill="white"/>
<path d="M130.649 22.5C129.62 22.5 128.614 22.3827 127.631 22.148C126.648 21.8987 125.865 21.5907 125.281 21.224L126.479 18.76C127.032 19.0973 127.7 19.376 128.483 19.596C129.267 19.8013 130.035 19.904 130.787 19.904C132.307 19.904 133.068 19.5447 133.068 18.826C133.068 18.4887 132.86 18.2467 132.446 18.1C132.031 17.9533 131.394 17.8287 130.534 17.726C129.52 17.5793 128.683 17.4107 128.023 17.22C127.362 17.0293 126.786 16.692 126.295 16.208C125.819 15.724 125.581 15.0347 125.581 14.14C125.581 13.392 125.804 12.732 126.249 12.16C126.71 11.5733 127.37 11.1187 128.23 10.796C129.105 10.4733 130.134 10.312 131.317 10.312C132.192 10.312 133.06 10.4073 133.92 10.598C134.795 10.774 135.517 11.0233 136.085 11.346L134.887 13.788C133.797 13.2013 132.607 12.908 131.317 12.908C130.549 12.908 129.973 13.0107 129.589 13.216C129.205 13.4213 129.013 13.6853 129.013 14.008C129.013 14.3747 129.221 14.6313 129.635 14.778C130.05 14.9247 130.71 15.064 131.616 15.196C132.63 15.3573 133.459 15.5333 134.104 15.724C134.749 15.9 135.31 16.23 135.786 16.714C136.262 17.198 136.5 17.8727 136.5 18.738C136.5 19.4713 136.27 20.124 135.809 20.696C135.348 21.268 134.672 21.7153 133.782 22.038C132.906 22.346 131.862 22.5 130.649 22.5Z" fill="white"/>
</g>
<defs>
<clipPath id="clip0_1030_8995">
<rect width="140.294" height="22.5" fill="white"/>
</clipPath>
</defs>
</svg>
