<svg width="40" height="26" viewBox="0 0 40 26" fill="none" xmlns="http://www.w3.org/2000/svg">
<g id="Group 3">
<path id="Vector 1" d="M7.90962 9.40015H0.472656L8.32279 25.5136H15.7598L7.90962 9.40015Z" fill="#0B92D2"/>
<path id="Vector 3" d="M23.1967 5.26855H15.7598L24.1608 25.5136H31.5978L23.1967 5.26855Z" fill="#137BC0"/>
<path id="Vector 2" d="M15.7603 5.26855H23.1973L15.7603 25.5136H8.32333L15.7603 5.26855Z" fill="#0E763F"/>
<g id="Vector">
<path fill-rule="evenodd" clip-rule="evenodd" d="M11.5193 16.8105L8.32227 25.5136H15.7592L11.5193 16.8105Z" fill="#FFD100"/>
<path fill-rule="evenodd" clip-rule="evenodd" d="M8.32227 25.5136H15.7592L11.5193 16.8105L8.32227 25.5136Z" fill="#FFD100"/>
</g>
<path id="Vector 4" d="M32.5611 0.861328H39.998L31.4593 25.5135H24.0223L32.5611 0.861328Z" fill="#E20613"/>
<g id="Vector_2">
<path fill-rule="evenodd" clip-rule="evenodd" d="M27.4695 15.5645L24.0861 25.3328L24.1612 25.5137H31.5981L31.5231 25.3328L27.4695 15.5645Z" fill="#0E4B9C"/>
<path fill-rule="evenodd" clip-rule="evenodd" d="M31.4604 25.5137L31.5231 25.3328L27.4695 15.5645L24.0861 25.3328L24.0234 25.5137H31.4604Z" fill="#0E4B9C"/>
</g>
</g>
</svg>
