<svg width="20" height="20" viewBox="0 0 20 20" fill="none" xmlns="http://www.w3.org/2000/svg">
<g clip-path="url(#clip0_1030_9700)">
<path d="M17.8672 4.18581L19.3992 2.72021V2.39941H14.092L10.3096 11.8138L6.00642 2.39941H0.441619V2.72021L2.23122 4.87461C2.40562 5.03381 2.49682 5.26661 2.47362 5.50101V13.9674C2.52882 14.2722 2.42962 14.5858 2.21522 14.8074L0.199219 17.2506V17.5674H5.91522V17.2466L3.89922 14.8074C3.68082 14.585 3.57762 14.277 3.62162 13.9674V6.64421L8.63922 17.5714H9.22242L13.5368 6.64421V15.349C13.5368 15.5786 13.5368 15.6258 13.3864 15.7762L11.8344 17.2778V17.5994H19.364V17.2786L17.868 15.8138C17.7368 15.7146 17.6688 15.5482 17.6968 15.3866V4.61301C17.6688 4.45061 17.736 4.28421 17.8672 4.18581Z" fill="white"/>
</g>
<defs>
<clipPath id="clip0_1030_9700">
<rect width="19.2" height="19.2" fill="white" transform="translate(0.199219 0.399902)"/>
</clipPath>
</defs>
</svg>
