<svg width="20" height="20" viewBox="0 0 20 20" fill="none" xmlns="http://www.w3.org/2000/svg">
<g clip-path="url(#clip0_1030_9698)">
<path d="M17.4604 7.84621C16.854 7.84621 16.3204 8.10141 15.9276 8.499C14.4836 7.4846 12.5364 6.83181 10.3788 6.76221L11.4996 1.6374L15.0684 2.4502C15.0684 3.3366 15.7804 4.06061 16.654 4.06061C17.5444 4.06061 18.2604 3.3174 18.2604 2.4302C18.2604 1.543 17.5492 0.799805 16.6548 0.799805C16.0316 0.799805 15.494 1.1814 15.226 1.703L11.2844 0.816605C11.086 0.763005 10.8916 0.907005 10.8388 1.1086L9.60836 6.75821C7.46756 6.84861 5.54116 7.50061 4.09236 8.51581C3.69956 8.10141 3.14516 7.84621 2.53876 7.84621C0.289161 7.84621 -0.44764 10.9094 1.61236 11.9566C1.53956 12.2806 1.50676 12.6262 1.50676 12.971C1.50676 16.4118 5.32676 19.1998 10.0172 19.1998C14.7276 19.1998 18.5476 16.4118 18.5476 12.971C18.5476 12.6262 18.5116 12.2646 18.4228 11.9398C20.4412 10.8886 19.698 7.84781 17.4604 7.84621ZM4.88116 12.1742C4.88116 11.271 5.59316 10.5438 6.48756 10.5438C7.36116 10.5438 8.07396 11.2662 8.07396 12.1742C8.07396 13.0614 7.36196 13.7846 6.48756 13.7846C5.59716 13.7886 4.88116 13.0614 4.88116 12.1742ZM13.5524 16.0126C12.0796 17.507 7.92356 17.507 6.44996 16.0126C6.28756 15.8686 6.28756 15.6142 6.44996 15.4502C6.59156 15.3062 6.84276 15.3062 6.98436 15.4502C8.10916 16.6206 11.8404 16.6406 13.014 15.4502C13.1556 15.3062 13.4068 15.3062 13.5484 15.4502C13.714 15.615 13.714 15.8694 13.5524 16.0126ZM13.5196 13.7878C12.646 13.7878 11.934 13.0654 11.934 12.179C11.934 11.2758 12.646 10.5486 13.5196 10.5486C14.41 10.5486 15.126 11.271 15.126 12.179C15.122 13.0614 14.41 13.7878 13.5196 13.7878Z" fill="white"/>
</g>
<defs>
<clipPath id="clip0_1030_9698">
<rect width="19.2" height="19.2" fill="white" transform="translate(0.400391 0.399902)"/>
</clipPath>
</defs>
</svg>
