<svg width="20" height="20" viewBox="0 0 20 20" fill="none" xmlns="http://www.w3.org/2000/svg">
<path d="M18.7992 2.79906C18.0331 3.33944 17.1849 3.75275 16.2872 4.02306C15.8054 3.46907 15.1651 3.07641 14.4528 2.8982C13.7406 2.71999 12.9908 2.76482 12.3049 3.02662C11.619 3.28843 11.03 3.75458 10.6176 4.36203C10.2052 4.96949 9.98938 5.68893 9.99922 6.42306V7.22306C8.59333 7.25951 7.20024 6.94771 5.94403 6.31542C4.68781 5.68312 3.60747 4.74997 2.79922 3.59906C2.79922 3.59906 -0.400781 10.7991 6.79922 13.9991C5.15164 15.1174 3.18894 15.6782 1.19922 15.5991C8.39922 19.5991 17.1992 15.5991 17.1992 6.39906C17.1985 6.17622 17.1771 5.95394 17.1352 5.73506C17.9517 4.92985 18.5279 3.91323 18.7992 2.79906Z" fill="white"/>
</svg>
